<?xml version="1.0" standalone="no"?>
<!DOCTYPE svg PUBLIC "-//W3C//DTD SVG 20010904//EN"
 "http://www.w3.org/TR/2001/REC-SVG-20010904/DTD/svg10.dtd">
<svg version="1.0" xmlns="http://www.w3.org/2000/svg"
 width="600.000000pt" height="978.000000pt" viewBox="0 0 600.000000 978.000000"
 preserveAspectRatio="xMidYMid meet">
<g transform="translate(0.000000,978.000000) scale(0.100000,-0.100000)"
fill="#000000" stroke="none">
<path d="M1010 9593 c-58 -9 -70 -15 -84 -41 -22 -42 -36 -157 -71 -577 -37
-444 -44 -688 -21 -795 8 -36 37 -132 65 -215 84 -250 87 -324 26 -561 -48
-188 -61 -309 -47 -442 15 -132 42 -232 92 -339 48 -103 85 -157 169 -246 132
-139 258 -206 696 -366 478 -175 635 -240 664 -275 7 -8 25 -17 40 -21 33 -7
75 -48 90 -88 15 -39 15 -553 0 -598 -6 -19 -27 -48 -46 -66 -51 -47 -82 -53
-948 -208 -399 -71 -489 -91 -548 -123 -90 -48 -171 -163 -197 -278 -17 -73
-13 -103 114 -851 56 -328 69 -458 63 -628 -4 -122 -10 -167 -32 -240 -33
-115 -89 -242 -152 -347 -101 -168 -98 -157 -133 -503 -63 -643 -115 -1292
-106 -1329 4 -15 23 -44 42 -66 30 -33 43 -40 73 -40 45 0 95 30 115 68 26 50
54 322 121 1157 20 248 34 381 47 430 5 22 31 74 56 115 94 156 178 363 209
517 13 69 17 142 18 333 l0 245 -84 475 c-110 622 -110 663 -10 712 44 21 820
164 1244 228 119 19 120 19 163 -2 71 -34 119 -127 92 -179 -27 -53 -67 -80
-204 -140 -410 -179 -585 -303 -698 -496 -105 -177 -143 -368 -142 -713 0
-191 4 -240 22 -325 100 -467 394 -895 725 -1055 45 -21 127 -52 182 -67 93
-26 113 -28 280 -27 166 0 187 2 268 27 164 51 339 154 462 274 186 181 347
482 427 797 27 109 31 141 35 322 9 327 -18 512 -97 682 -71 150 -175 267
-332 373 -113 75 -150 94 -363 185 -187 81 -237 119 -250 188 -16 83 66 172
155 170 77 -3 911 -150 1235 -218 110 -23 123 -28 153 -61 17 -19 33 -46 33
-60 1 -14 2 -31 2 -37 2 -29 -17 -151 -73 -478 -113 -657 -126 -768 -110 -950
21 -244 66 -392 200 -655 53 -104 100 -206 103 -225 7 -39 14 -108 57 -630 52
-616 81 -874 106 -922 27 -52 72 -61 141 -27 75 36 77 44 64 236 -11 151 -45
569 -86 1053 -21 246 -44 417 -59 455 -8 18 -37 71 -65 117 -145 241 -211 459
-211 697 0 164 18 293 116 851 25 140 52 296 61 345 49 282 -62 466 -317 528
-36 8 -236 45 -445 82 -892 155 -904 158 -957 243 -23 37 -23 41 -23 342 0
289 1 307 20 340 12 19 36 42 55 52 212 101 290 134 605 248 476 173 619 236
718 317 81 67 186 187 239 274 77 126 128 326 128 498 0 103 -19 221 -56 356
-24 86 -28 119 -28 240 l-1 140 52 155 c112 332 113 371 38 1200 -14 151 -30
300 -35 330 -14 75 -46 106 -121 115 -56 7 -56 7 -85 -31 -28 -37 -29 -41 -27
-143 1 -58 9 -185 18 -281 45 -522 56 -694 53 -790 -4 -96 -9 -120 -61 -272
-105 -309 -112 -459 -36 -743 38 -144 42 -171 42 -270 -1 -183 -47 -313 -161
-456 -76 -96 -142 -153 -223 -194 -112 -57 -849 -326 -957 -350 -69 -15 -172
70 -172 141 0 38 43 125 70 141 24 16 173 73 415 159 99 36 260 97 357 135
146 58 186 78 228 116 59 53 103 139 120 233 13 70 15 57 -57 375 -22 94 -25
137 -26 295 -1 218 12 291 90 491 l48 124 -2 170 c-2 277 -71 984 -101 1045
-32 66 -140 79 -196 23 -22 -22 -26 -35 -26 -82 0 -89 26 -422 72 -932 l11
-126 -41 -104 c-75 -194 -107 -344 -118 -555 -8 -163 6 -301 51 -484 64 -259
63 -260 -245 -384 -253 -101 -539 -198 -590 -199 -30 -1 -56 4 -74 16 -36 24
-86 104 -86 137 0 51 53 106 167 172 80 46 129 83 188 143 175 177 210 295
209 705 0 199 -2 235 -22 315 -47 189 -156 354 -244 370 -48 9 -113 -10 -137
-42 -40 -50 -26 -110 53 -226 75 -112 81 -143 81 -433 l0 -251 -27 -34 c-14
-19 -45 -43 -67 -54 -35 -15 -47 -16 -81 -6 -21 6 -53 23 -70 37 -59 51 -63
68 -71 314 -3 124 -11 237 -17 251 -6 15 -21 34 -34 43 -28 20 -100 21 -138 1
-52 -27 -57 -50 -62 -296 -5 -196 -8 -231 -25 -270 -34 -76 -129 -102 -213
-59 -73 37 -75 48 -74 362 l2 277 55 78 c73 105 97 154 97 202 0 85 -93 135
-182 98 -47 -20 -116 -107 -169 -215 l-41 -82 -10 -168 c-5 -92 -8 -268 -6
-392 l4 -225 37 -78 c74 -160 172 -267 314 -347 134 -74 153 -89 175 -135 19
-39 20 -48 9 -85 -13 -44 -80 -125 -111 -135 -30 -9 -525 164 -742 260 -79 34
-117 57 -143 87 -41 45 -42 30 6 223 44 174 59 292 59 457 0 221 -36 402 -122
618 -37 91 -37 63 8 585 41 477 46 613 24 640 -24 29 -95 57 -127 49 -36 -9
-71 -32 -83 -55 -13 -23 -36 -192 -54 -399 -40 -438 -48 -569 -44 -699 5 -132
7 -140 52 -264 76 -210 81 -243 81 -482 -1 -210 -1 -210 -39 -365 -50 -200
-54 -314 -14 -400 30 -66 105 -152 162 -184 35 -21 230 -96 671 -258 144 -53
254 -104 284 -131 59 -54 60 -131 3 -193 -50 -55 -85 -68 -145 -53 -137 32
-807 278 -935 343 -127 64 -260 201 -322 331 -17 36 -40 102 -52 147 -28 114
-22 274 17 403 46 151 48 164 48 360 0 209 -1 218 -68 395 -23 63 -49 140 -56
170 -22 88 -14 327 25 768 40 449 42 498 22 546 -23 56 -55 71 -126 59z"/>
</g>
</svg>
